<svg width="156" height="50" viewBox="0 0 156 50" fill="none" xmlns="http://www.w3.org/2000/svg" _ngcontent-ng-c94869389="" aria-label="undefined">
<path d="M91.0525 11.8026L86.8589 27.8856H82.1162L79.5581 17.3004L76.9016 27.8856H72.1513L68.0732 11.8026H72.265L74.5766 23.509L77.4391 11.8026H81.7464L84.4991 23.5013L86.8358 11.7949L91.0525 11.8026Z" fill="white" _ngcontent-ng-c94869389=""></path>
<path d="M96.9387 14.9407V18.1943H102.186V21.2187H96.9387V24.7477H102.866V27.8857H93.0225V11.8027H102.866V14.9407H96.9387Z" fill="white" _ngcontent-ng-c94869389=""></path>
<path d="M112.175 21.7001H117.147C116.896 22.5381 116.387 23.2756 115.692 23.8075C114.98 24.3117 114.123 24.5694 113.252 24.5415C111.845 24.5415 110.742 24.1248 109.942 23.2913C109.142 22.4578 108.741 21.302 108.738 19.8239C108.738 18.4331 109.12 17.3216 109.884 16.4894C110.648 15.6572 111.664 15.2411 112.932 15.2411C113.594 15.2251 114.251 15.3705 114.845 15.6649C115.375 15.9375 115.81 16.3647 116.093 16.8901H120.423C120.051 15.3223 119.118 13.9451 117.8 13.0181C116.478 12.0884 114.856 11.6228 112.932 11.6215C111.453 11.5945 109.992 11.9537 108.694 12.6637C107.477 13.3432 106.476 14.3511 105.804 15.5725C105.095 16.8755 104.736 18.3404 104.762 19.8239C104.735 21.3032 105.094 22.764 105.804 24.0618C106.483 25.2791 107.491 26.2805 108.713 26.9513C110.016 27.661 111.481 28.0201 112.965 27.9935C114.214 28.0168 115.452 27.7532 116.584 27.2229C117.603 26.7429 118.505 26.0476 119.229 25.1849C119.903 24.386 120.405 23.4577 120.706 22.4572V18.8126H112.175V21.7001Z" fill="#A073F7" _ngcontent-ng-c94869389=""></path>
<mask id="mask0_1091_43633" style="mask-type:luminance" maskUnits="userSpaceOnUse" x="104" y="11" width="17" height="17" _ngcontent-ng-c94869389="">
<path d="M112.175 21.7001H117.147C116.896 22.5381 116.387 23.2756 115.692 23.8075C114.98 24.3117 114.123 24.5694 113.252 24.5415C111.845 24.5415 110.742 24.1248 109.942 23.2913C109.142 22.4578 108.741 21.302 108.738 19.8239C108.738 18.4331 109.12 17.3216 109.884 16.4894C110.648 15.6572 111.664 15.2411 112.932 15.2411C113.594 15.2251 114.251 15.3705 114.845 15.6649C115.375 15.9375 115.81 16.3647 116.093 16.8901H120.423C120.051 15.3223 119.118 13.9451 117.8 13.0181C116.478 12.0884 114.856 11.6228 112.932 11.6215C111.453 11.5945 109.992 11.9537 108.694 12.6637C107.477 13.3432 106.476 14.3511 105.804 15.5725C105.095 16.8755 104.736 18.3404 104.762 19.8239C104.735 21.3032 105.094 22.764 105.804 24.0618C106.483 25.2791 107.491 26.2805 108.713 26.9513C110.016 27.661 111.481 28.0201 112.965 27.9935C114.214 28.0168 115.452 27.7532 116.584 27.2229C117.603 26.7429 118.505 26.0476 119.229 25.1849C119.903 24.386 120.405 23.4577 120.706 22.4572V18.8126H112.175V21.7001Z" fill="white" _ngcontent-ng-c94869389=""></path>
</mask>
<g mask="url(#mask0_1091_43633)" _ngcontent-ng-c94869389="">
<path d="M104.753 13.0547L109.744 11.6196H115.616L119.998 26.8492L115.997 27.9993H104.753V13.0547Z" fill="#A073F7" _ngcontent-ng-c94869389=""></path>
<path d="M116.018 11.6196L120.369 26.7414L119.998 26.8492L115.615 11.6196H116.018Z" fill="#A073F7" _ngcontent-ng-c94869389=""></path>
<path d="M116.423 11.6196L120.698 26.4794V26.647L120.37 26.7414L116.019 11.6196H116.423Z" fill="#A073F7" _ngcontent-ng-c94869389=""></path>
<path d="M116.825 11.6196L120.697 25.0789V26.4794L116.423 11.6196H116.825Z" fill="#A073F7" _ngcontent-ng-c94869389=""></path>
<path d="M117.228 11.6196L120.697 23.6766V25.0789L116.825 11.6196H117.228Z" fill="#A073F7" _ngcontent-ng-c94869389=""></path>
<path d="M117.632 11.6196L120.697 22.2761V23.6766L117.228 11.6196H117.632Z" fill="#A073F7" _ngcontent-ng-c94869389=""></path>
<path d="M118.035 11.6196L120.698 20.8738V22.2761L117.633 11.6196H118.035Z" fill="#A073F7" _ngcontent-ng-c94869389=""></path>
<path d="M118.438 11.6196L120.697 19.4733V20.8738L118.035 11.6196H118.438Z" fill="#A073F7" _ngcontent-ng-c94869389=""></path>
<path d="M118.842 11.6196L120.697 18.0709V19.4733L118.438 11.6196H118.842Z" fill="#A073F7" _ngcontent-ng-c94869389=""></path>
<path d="M119.244 11.6196L120.697 16.6705V18.0709L118.842 11.6196H119.244Z" fill="#A073F7" _ngcontent-ng-c94869389=""></path>
<path d="M119.648 11.6196L120.698 15.27V16.6705L119.245 11.6196H119.648Z" fill="#A073F7" _ngcontent-ng-c94869389=""></path>
<path d="M120.052 11.6196L120.697 13.8677V15.27L119.647 11.6196H120.052Z" fill="#A073F7" _ngcontent-ng-c94869389=""></path>
<path d="M120.454 11.6196L120.697 12.4672V13.8677L120.052 11.6196H120.454Z" fill="#A073F7" _ngcontent-ng-c94869389=""></path>
<path d="M120.697 12.4672L120.454 11.6196H120.697V12.4672Z" fill="#A073F7" _ngcontent-ng-c94869389=""></path>
</g>
<path d="M122.873 27.8857H132.724V24.7477H126.791V21.2187H132.039V18.1943H126.791V14.9407H132.724V11.8027H122.873V27.8857Z" fill="#A073F7" _ngcontent-ng-c94869389=""></path>
<mask id="mask1_1091_43633" style="mask-type:luminance" maskUnits="userSpaceOnUse" x="122" y="11" width="11" height="17" _ngcontent-ng-c94869389="">
<path d="M122.873 27.8857H132.724V24.7477H126.791V21.2187H132.039V18.1943H126.791V14.9407H132.724V11.8027H122.873V27.8857Z" fill="white" _ngcontent-ng-c94869389=""></path>
</mask>
<g mask="url(#mask1_1091_43633)" _ngcontent-ng-c94869389="">
<path d="M122.873 27.0361L123.118 27.8856H122.873V27.0361Z" fill="#A073F7" _ngcontent-ng-c94869389=""></path>
<path d="M122.873 25.6357L123.52 27.8857H123.118L122.873 27.0362V25.6357Z" fill="#A073F7" _ngcontent-ng-c94869389=""></path>
<path d="M122.873 24.2354L123.925 27.8858H123.52L122.873 25.6358V24.2354Z" fill="#A073F7" _ngcontent-ng-c94869389=""></path>
<path d="M122.873 22.833L124.327 27.8858H123.925L122.873 24.2354V22.833Z" fill="#A073F7" _ngcontent-ng-c94869389=""></path>
<path d="M122.873 21.4326L124.73 27.8858H124.327L122.873 22.8331V21.4326Z" fill="#A073F7" _ngcontent-ng-c94869389=""></path>
<path d="M122.873 20.0303L125.135 27.8859H124.73L122.873 21.4326V20.0303Z" fill="#A073F7" _ngcontent-ng-c94869389=""></path>
<path d="M122.873 18.6299L125.537 27.8859H125.135L122.873 20.0303V18.6299Z" fill="#A073F7" _ngcontent-ng-c94869389=""></path>
<path d="M122.873 17.2275L125.94 27.886H125.537L122.873 18.6299V17.2275Z" fill="#A073F7" _ngcontent-ng-c94869389=""></path>
<path d="M122.873 15.8267L126.344 27.8855H125.94L122.873 17.2271V15.8267Z" fill="#A073F7" _ngcontent-ng-c94869389=""></path>
<path d="M122.873 14.4263L126.747 27.8856H126.344L122.873 15.8267V14.4263Z" fill="#A073F7" _ngcontent-ng-c94869389=""></path>
<path d="M122.873 13.0239L127.15 27.8856H126.747L122.873 14.4263V13.0239Z" fill="#A073F7" _ngcontent-ng-c94869389=""></path>
<path d="M122.925 11.8027L127.552 27.8857H127.15L122.873 13.024V11.8027H122.925Z" fill="#A073F7" _ngcontent-ng-c94869389=""></path>
<path d="M123.327 11.8027L127.956 27.8857H127.552L122.925 11.8027H123.327Z" fill="#A073F7" _ngcontent-ng-c94869389=""></path>
<path d="M123.733 11.8027L128.36 27.8857H127.957L123.328 11.8027H123.733Z" fill="#A073F7" _ngcontent-ng-c94869389=""></path>
<path d="M124.135 11.8027L128.762 27.8857H128.359L123.732 11.8027H124.135Z" fill="#A073F7" _ngcontent-ng-c94869389=""></path>
<path d="M124.537 11.8027L129.166 27.8857H128.762L124.135 11.8027H124.537Z" fill="#A073F7" _ngcontent-ng-c94869389=""></path>
<path d="M124.942 11.8027L129.569 27.8857H129.166L124.537 11.8027H124.942Z" fill="#A073F7" _ngcontent-ng-c94869389=""></path>
<path d="M125.345 11.8027L129.972 27.8857H129.569L124.942 11.8027H125.345Z" fill="#A073F7" _ngcontent-ng-c94869389=""></path>
<path d="M125.747 11.8027L130.376 27.8857H129.972L125.345 11.8027H125.747Z" fill="#A073F7" _ngcontent-ng-c94869389=""></path>
<path d="M126.152 11.8027L130.779 27.8857H130.376L125.747 11.8027H126.152Z" fill="#A073F7" _ngcontent-ng-c94869389=""></path>
<path d="M126.554 11.8027L131.181 27.8857H130.778L126.151 11.8027H126.554Z" fill="#A073F7" _ngcontent-ng-c94869389=""></path>
<path d="M126.957 11.8027L131.586 27.8857H131.182L126.555 11.8027H126.957Z" fill="#A073F7" _ngcontent-ng-c94869389=""></path>
<path d="M127.36 11.8027L131.989 27.8857H131.586L126.957 11.8027H127.36Z" fill="#A073F7" _ngcontent-ng-c94869389=""></path>
<path d="M127.764 11.8027L132.391 27.8857H131.988L127.359 11.8027H127.764Z" fill="#A073F7" _ngcontent-ng-c94869389=""></path>
<path d="M128.166 11.8027L132.724 27.6449V27.8857H132.391L127.764 11.8027H128.166Z" fill="#A073F7" _ngcontent-ng-c94869389=""></path>
<path d="M128.57 11.8027L132.725 26.2445V27.6449L128.167 11.8027H128.57Z" fill="#A073F7" _ngcontent-ng-c94869389=""></path>
<path d="M128.974 11.8027L132.724 24.8421V26.2445L128.569 11.8027H128.974Z" fill="#A073F7" _ngcontent-ng-c94869389=""></path>
<path d="M129.376 11.8027L132.724 23.4417V24.8421L128.974 11.8027H129.376Z" fill="#A073F7" _ngcontent-ng-c94869389=""></path>
<path d="M129.779 11.8027L132.724 22.0393V23.4417L129.376 11.8027H129.779Z" fill="#A073F7" _ngcontent-ng-c94869389=""></path>
<path d="M130.184 11.8027L132.725 20.6388V22.0393L129.779 11.8027H130.184Z" fill="#A073F7" _ngcontent-ng-c94869389=""></path>
<path d="M130.586 11.8027L132.724 19.2365V20.6388L130.184 11.8027H130.586Z" fill="#A073F7" _ngcontent-ng-c94869389=""></path>
<path d="M130.989 11.8027L132.724 17.836V19.2365L130.586 11.8027H130.989Z" fill="#A073F7" _ngcontent-ng-c94869389=""></path>
<path d="M131.393 11.8027L132.724 16.4336V17.836L130.988 11.8027H131.393Z" fill="#A073F7" _ngcontent-ng-c94869389=""></path>
<path d="M131.796 11.8027L132.725 15.0332V16.4336L131.394 11.8027H131.796Z" fill="#A073F7" _ngcontent-ng-c94869389=""></path>
<path d="M132.199 11.8027L132.724 13.6328V15.0332L131.796 11.8027H132.199Z" fill="#A073F7" _ngcontent-ng-c94869389=""></path>
<path d="M132.603 11.8027L132.724 12.2304V13.6328L132.198 11.8027H132.603Z" fill="#A073F7" _ngcontent-ng-c94869389=""></path>
<path d="M132.724 12.2304L132.603 11.8027H132.724V12.2304Z" fill="#A073F7" _ngcontent-ng-c94869389=""></path>
</g>
<path d="M134.396 11.8027V14.9407H138.659V27.8857H142.576V14.9407H146.837V11.8027H134.396Z" fill="#A073F7" _ngcontent-ng-c94869389=""></path>
<mask id="mask2_1091_43633" style="mask-type:luminance" maskUnits="userSpaceOnUse" x="134" y="11" width="13" height="17" _ngcontent-ng-c94869389="">
<path d="M134.396 11.8027V14.9407H138.659V27.8857H142.576V14.9407H146.837V11.8027H134.396Z" fill="white" _ngcontent-ng-c94869389=""></path>
</mask>
<g mask="url(#mask2_1091_43633)" _ngcontent-ng-c94869389="">
<path d="M134.396 27.8511L134.408 27.8857H134.396V27.8511Z" fill="#A073F7" _ngcontent-ng-c94869389=""></path>
<path d="M134.396 26.4487L134.811 27.8858H134.408L134.396 27.8511V26.4487Z" fill="#A073F7" _ngcontent-ng-c94869389=""></path>
<path d="M134.396 25.0483L135.213 27.8858H134.811L134.396 26.4488V25.0483Z" fill="#A073F7" _ngcontent-ng-c94869389=""></path>
<path d="M134.396 23.6479L135.618 27.8859H135.213L134.396 25.0484V23.6479Z" fill="#A073F7" _ngcontent-ng-c94869389=""></path>
<path d="M134.396 22.2456L136.02 27.8859H135.618L134.396 23.648V22.2456Z" fill="#A073F7" _ngcontent-ng-c94869389=""></path>
<path d="M134.396 20.8447L136.423 27.8855H136.02L134.396 22.2452V20.8447Z" fill="#A073F7" _ngcontent-ng-c94869389=""></path>
<path d="M134.396 19.4424L136.828 27.8855H136.423L134.396 20.8448V19.4424Z" fill="#A073F7" _ngcontent-ng-c94869389=""></path>
<path d="M134.396 18.042L137.23 27.8856H136.828L134.396 19.4424V18.042Z" fill="#A073F7" _ngcontent-ng-c94869389=""></path>
<path d="M134.396 16.6396L137.633 27.8856H137.23L134.396 18.042V16.6396Z" fill="#A073F7" _ngcontent-ng-c94869389=""></path>
<path d="M134.396 15.2393L138.037 27.8857H137.633L134.396 16.6397V15.2393Z" fill="#A073F7" _ngcontent-ng-c94869389=""></path>
<path d="M134.396 13.8369L138.44 27.8857H138.037L134.396 15.2393V13.8369Z" fill="#A073F7" _ngcontent-ng-c94869389=""></path>
<path d="M134.396 12.4365L138.842 27.8857H138.44L134.396 13.837V12.4365Z" fill="#A073F7" _ngcontent-ng-c94869389=""></path>
<path d="M134.618 11.8027L139.245 27.8857H138.842L134.396 12.4365V11.8027H134.618Z" fill="#A073F7" _ngcontent-ng-c94869389=""></path>
<path d="M135.021 11.8027L139.65 27.8857H139.245L134.618 11.8027H135.021Z" fill="#A073F7" _ngcontent-ng-c94869389=""></path>
<path d="M135.425 11.8027L140.052 27.8857H139.649L135.021 11.8027H135.425Z" fill="#A073F7" _ngcontent-ng-c94869389=""></path>
<path d="M135.827 11.8027L140.454 27.8857H140.052L135.425 11.8027H135.827Z" fill="#A073F7" _ngcontent-ng-c94869389=""></path>
<path d="M136.231 11.8027L140.86 27.8857H140.455L135.828 11.8027H136.231Z" fill="#A073F7" _ngcontent-ng-c94869389=""></path>
<path d="M136.635 11.8027L141.262 27.8857H140.859L136.23 11.8027H136.635Z" fill="#A073F7" _ngcontent-ng-c94869389=""></path>
<path d="M137.037 11.8027L141.664 27.8857H141.262L136.635 11.8027H137.037Z" fill="#A073F7" _ngcontent-ng-c94869389=""></path>
<path d="M137.44 11.8027L142.069 27.8857H141.664L137.037 11.8027H137.44Z" fill="#A073F7" _ngcontent-ng-c94869389=""></path>
<path d="M137.845 11.8027L142.472 27.8857H142.069L137.44 11.8027H137.845Z" fill="#A073F7" _ngcontent-ng-c94869389=""></path>
<path d="M138.247 11.8027L142.874 27.8857H142.472L137.845 11.8027H138.247Z" fill="#A073F7" _ngcontent-ng-c94869389=""></path>
<path d="M138.65 11.8027L143.279 27.8857H142.874L138.247 11.8027H138.65Z" fill="#A073F7" _ngcontent-ng-c94869389=""></path>
<path d="M139.054 11.8027L143.681 27.8857H143.278L138.649 11.8027H139.054Z" fill="#A073F7" _ngcontent-ng-c94869389=""></path>
<path d="M139.457 11.8027L144.077 27.8549L143.971 27.8857H143.682L139.055 11.8027H139.457Z" fill="#A073F7" _ngcontent-ng-c94869389=""></path>
<path d="M139.86 11.8027L144.448 27.749L144.076 27.8549L139.457 11.8027H139.86Z" fill="#A073F7" _ngcontent-ng-c94869389=""></path>
<path d="M140.262 11.8027L144.82 27.6411L144.448 27.749L139.859 11.8027H140.262Z" fill="#A073F7" _ngcontent-ng-c94869389=""></path>
<path d="M140.666 11.8027L145.193 27.5332L144.819 27.6411L140.262 11.8027H140.666Z" fill="#A073F7" _ngcontent-ng-c94869389=""></path>
<path d="M141.07 11.8027L145.566 27.4273L145.194 27.5332L140.667 11.8027H141.07Z" fill="#A073F7" _ngcontent-ng-c94869389=""></path>
<path d="M141.472 11.8027L145.937 27.3194L145.565 27.4273L141.069 11.8027H141.472Z" fill="#A073F7" _ngcontent-ng-c94869389=""></path>
<path d="M141.876 11.8027L146.309 27.2115L145.937 27.3194L141.472 11.8027H141.876Z" fill="#A073F7" _ngcontent-ng-c94869389=""></path>
<path d="M142.279 11.8027L146.682 27.1056L146.308 27.2115L141.876 11.8027H142.279Z" fill="#A073F7" _ngcontent-ng-c94869389=""></path>
<path d="M142.682 11.8027L146.837 26.2445V27.0612L146.683 27.1056L142.279 11.8027H142.682Z" fill="#A073F7" _ngcontent-ng-c94869389=""></path>
<path d="M143.086 11.8027L146.837 24.844V26.2445L142.682 11.8027H143.086Z" fill="#A073F7" _ngcontent-ng-c94869389=""></path>
<path d="M143.489 11.8027L146.837 23.4417V24.844L143.086 11.8027H143.489Z" fill="#A073F7" _ngcontent-ng-c94869389=""></path>
<path d="M143.892 11.8027L146.837 22.0412V23.4417L143.489 11.8027H143.892Z" fill="#A073F7" _ngcontent-ng-c94869389=""></path>
<path d="M144.296 11.8027L146.837 20.6388V22.0412L143.892 11.8027H144.296Z" fill="#A073F7" _ngcontent-ng-c94869389=""></path>
<path d="M144.698 11.8027L146.837 19.2384V20.6388L144.296 11.8027H144.698Z" fill="#A073F7" _ngcontent-ng-c94869389=""></path>
<path d="M145.101 11.8027L146.836 17.836V19.2384L144.698 11.8027H145.101Z" fill="#A073F7" _ngcontent-ng-c94869389=""></path>
<path d="M145.506 11.8027L146.837 16.4356V17.836L145.102 11.8027H145.506Z" fill="#A073F7" _ngcontent-ng-c94869389=""></path>
<path d="M145.908 11.8027L146.837 15.0351V16.4356L145.506 11.8027H145.908Z" fill="#A073F7" _ngcontent-ng-c94869389=""></path>
<path d="M146.311 11.8027L146.837 13.6328V15.0351L145.908 11.8027H146.311Z" fill="#A073F7" _ngcontent-ng-c94869389=""></path>
<path d="M146.713 11.8027L146.836 12.2323V13.6328L146.311 11.8027H146.713Z" fill="#A073F7" _ngcontent-ng-c94869389=""></path>
<path d="M146.837 12.2323L146.714 11.8027H146.837V12.2323Z" fill="#A073F7" _ngcontent-ng-c94869389=""></path>
</g>
<path d="M70.2939 29.9663V33.1062H63.7443V36.4966H68.6468V39.5441H63.7424V46.0493H59.8242V29.9663H70.2939Z" fill="white" _ngcontent-ng-c94869389=""></path>
<path d="M76.2063 29.9663V39.5884C76.2063 40.5515 76.4432 41.2925 76.9171 41.8114C77.391 42.3302 78.0857 42.587 79.0014 42.5819C79.917 42.5819 80.6195 42.325 81.1088 41.8114C81.5981 41.2977 81.8427 40.5567 81.8427 39.5884V29.9663H85.759V39.5672C85.759 41.0017 85.454 42.2159 84.8439 43.2099C84.2577 44.1829 83.4019 44.9651 82.3802 45.4618C81.3045 45.9765 80.1244 46.2356 78.932 46.2188C77.7545 46.2355 76.5894 45.9763 75.5301 45.4618C74.5324 44.9686 73.7061 44.1866 73.1588 43.2176C72.5796 42.2159 72.2894 40.9959 72.2881 39.5575V29.9663H76.2063Z" fill="white" _ngcontent-ng-c94869389=""></path>
<path d="M102.896 46.0493H98.9794L92.4298 36.1306V46.0493H88.5078V29.9663H92.426L98.9755 39.9332V29.9663H102.892L102.896 46.0493Z" fill="white" _ngcontent-ng-c94869389=""></path>
<path d="M116.208 30.9757C117.441 31.615 118.463 32.597 119.151 33.8036C119.836 35.0972 120.193 36.5385 120.193 38.002C120.193 39.4655 119.836 40.9068 119.151 42.2005C118.464 43.4149 117.437 44.4024 116.196 45.0418C114.92 45.7148 113.443 46.0506 111.766 46.0493H105.736V29.9663H111.762C113.457 29.9663 114.939 30.3028 116.208 30.9757ZM114.969 41.4453C115.794 40.6363 116.207 39.4908 116.208 38.0088C116.209 36.5268 115.796 35.371 114.969 34.5414C114.145 33.7169 112.989 33.3047 111.502 33.3047H109.647V42.6512H111.502C112.989 42.6564 114.145 42.2544 114.969 41.4453Z" fill="white" _ngcontent-ng-c94869389=""></path>
<path d="M126.31 33.1062V36.3579H131.557V39.3822H126.31V42.9113H132.245V46.0493H122.392V29.9663H132.245V33.1062H126.31Z" fill="white" _ngcontent-ng-c94869389=""></path>
<path d="M145.258 30.9757C146.491 31.615 147.513 32.597 148.201 33.8036C148.886 35.0972 149.243 36.5385 149.243 38.002C149.243 39.4655 148.886 40.9068 148.201 42.2005C147.514 43.4153 146.487 44.4029 145.246 45.0418C143.971 45.7148 142.494 46.0506 140.816 46.0493H134.788V29.9663H140.816C142.509 29.9663 143.99 30.3028 145.258 30.9757ZM144.021 41.4453C144.845 40.6363 145.258 39.4908 145.258 38.0088C145.258 36.5268 144.845 35.371 144.021 34.5414C143.195 33.7169 142.039 33.3047 140.554 33.3047H138.697V42.6512H140.554C142.041 42.6564 143.197 42.2544 144.021 41.4453Z" fill="white" _ngcontent-ng-c94869389=""></path>
<path d="M151.591 45.6252C151.381 45.4367 151.214 45.2051 151.101 44.9462C150.988 44.6872 150.933 44.407 150.938 44.1246C150.931 43.836 150.985 43.5492 151.098 43.2834C151.211 43.0177 151.379 42.779 151.591 42.5836C152.048 42.1617 152.654 41.9386 153.275 41.9633C153.579 41.9521 153.883 42.0011 154.168 42.1076C154.453 42.214 154.715 42.3758 154.937 42.5836C155.15 42.779 155.318 43.0177 155.43 43.2834C155.543 43.5492 155.598 43.836 155.59 44.1246C155.596 44.407 155.54 44.6872 155.427 44.9462C155.315 45.2051 155.148 45.4367 154.937 45.6252C154.484 46.038 153.887 46.2565 153.275 46.234C152.656 46.259 152.051 46.0405 151.591 45.6252Z" fill="white" _ngcontent-ng-c94869389=""></path>
<path d="M40.7459 19.5292L34.8128 11.6023L19.8297 32.1833L25.0674 39.8887L21.4247 44.4521L6.26445 22.7115H12.9835L19.0707 30.8214L33.838 9.88981L26.8666 0L12.9604 19.4425H0L21.2494 49.9133L27.0284 42.6703L32.2912 50L39.1528 40.2836L54.1301 19.3501L40.7459 19.5292ZM47.7154 22.7057L37.7562 36.61L34.2195 32.112L40.7902 22.7982L47.7154 22.7057ZM28.4385 39.0295L23.8269 32.2469L34.8494 17.1078L37.9142 21.2032L30.1433 32.2218L35.7856 39.384L32.2681 44.3635L28.4385 39.0295ZM15.8268 21.0529L26.8474 5.64224L29.839 9.88018L18.9898 25.2678L15.8268 21.0529Z" fill="#A073F7" _ngcontent-ng-c94869389=""></path>
<mask id="mask3_1091_43633" style="mask-type:luminance" maskUnits="userSpaceOnUse" x="0" y="0" width="55" height="50" _ngcontent-ng-c94869389="">
<path d="M40.7459 19.5292L34.8128 11.6023L19.8297 32.1833L25.0674 39.8887L21.4247 44.4521L6.26445 22.7115H12.9835L19.0707 30.8214L33.838 9.88981L26.8666 0L12.9604 19.4425H0L21.2494 49.9133L27.0284 42.6703L32.2912 50L39.1528 40.2836L54.1301 19.3501L40.7459 19.5292ZM47.7154 22.7057L37.7562 36.61L34.2195 32.112L40.7902 22.7982L47.7154 22.7057ZM28.4385 39.0295L23.8269 32.2469L34.8494 17.1078L37.9142 21.2032L30.1433 32.2218L35.7856 39.384L32.2681 44.3635L28.4385 39.0295ZM15.8268 21.0529L26.8474 5.64224L29.839 9.88018L18.9898 25.2678L15.8268 21.0529Z" fill="white" _ngcontent-ng-c94869389=""></path>
</mask>
<g mask="url(#mask3_1091_43633)" _ngcontent-ng-c94869389="">
<path d="M15.8271 24.8789L16.1026 25.268H15.8271V24.8789Z" fill="#A073F7" _ngcontent-ng-c94869389=""></path>
<path d="M15.8271 24.2817L16.5245 25.268H16.1026L15.8271 24.8789V24.2817Z" fill="#A073F7" _ngcontent-ng-c94869389=""></path>
<path d="M15.8271 23.6846L16.9463 25.268H16.5245L15.8271 24.2817V23.6846Z" fill="#A073F7" _ngcontent-ng-c94869389=""></path>
<path d="M15.8271 23.0894L17.3663 25.268H16.9464L15.8271 23.6846V23.0894Z" fill="#A073F7" _ngcontent-ng-c94869389=""></path>
<path d="M15.8271 22.4922L17.7882 25.268H17.3663L15.8271 23.0894V22.4922Z" fill="#A073F7" _ngcontent-ng-c94869389=""></path>
<path d="M15.8271 21.897L18.21 25.2681H17.7882L15.8271 22.4922V21.897Z" fill="#A073F7" _ngcontent-ng-c94869389=""></path>
<path d="M15.8271 21.2998L18.63 25.2681H18.21L15.8271 21.897V21.2998Z" fill="#A073F7" _ngcontent-ng-c94869389=""></path>
<path d="M15.8271 20.7026L19.0518 25.2681H18.63L15.8271 21.2998V20.7026Z" fill="#A073F7" _ngcontent-ng-c94869389=""></path>
<path d="M15.8271 20.1074L19.4718 25.2681H19.0518L15.8271 20.7027V20.1074Z" fill="#A073F7" _ngcontent-ng-c94869389=""></path>
<path d="M15.8271 19.5103L19.8147 25.1563L19.6586 25.2681H19.4718L15.8271 20.1074V19.5103Z" fill="#A073F7" _ngcontent-ng-c94869389=""></path>
<path d="M15.8271 18.915L20.0959 24.958L19.8147 25.1564L15.8271 19.5103V18.915Z" fill="#A073F7" _ngcontent-ng-c94869389=""></path>
<path d="M15.8271 18.3179L20.3772 24.7595L20.0959 24.958L15.8271 18.915V18.3179Z" fill="#A073F7" _ngcontent-ng-c94869389=""></path>
<path d="M15.8271 17.7207L20.6584 24.5611L20.3772 24.7595L15.8271 18.3179V17.7207Z" fill="#A073F7" _ngcontent-ng-c94869389=""></path>
<path d="M15.8271 17.1255L20.9396 24.3627L20.6584 24.5611L15.8271 17.7207V17.1255Z" fill="#A073F7" _ngcontent-ng-c94869389=""></path>
<path d="M15.8271 16.5283L21.2209 24.1643L20.9396 24.3627L15.8271 17.1255V16.5283Z" fill="#A073F7" _ngcontent-ng-c94869389=""></path>
<path d="M15.8271 15.9312L21.5021 23.9659L21.2209 24.1643L15.8271 16.5283V15.9312Z" fill="#A073F7" _ngcontent-ng-c94869389=""></path>
<path d="M15.8271 15.3359L21.7834 23.7675L21.5021 23.9659L15.8271 15.9312V15.3359Z" fill="#A073F7" _ngcontent-ng-c94869389=""></path>
<path d="M15.8271 14.7388L22.0646 23.5691L21.7834 23.7675L15.8271 15.3359V14.7388Z" fill="#A073F7" _ngcontent-ng-c94869389=""></path>
<path d="M15.8271 14.1436L22.3459 23.3707L22.0646 23.5691L15.8271 14.7388V14.1436Z" fill="#A073F7" _ngcontent-ng-c94869389=""></path>
<path d="M15.8271 13.5464L22.6252 23.1723L22.3459 23.3707L15.8271 14.1436V13.5464Z" fill="#A073F7" _ngcontent-ng-c94869389=""></path>
<path d="M15.8271 12.9584L15.831 12.9546L22.9064 22.9735L22.6252 23.1719L15.8271 13.546V12.9584Z" fill="#A073F7" _ngcontent-ng-c94869389=""></path>
<path d="M16.2115 12.7326L15.9287 12.9326L23.0424 22.9899L23.3252 22.7899L16.2115 12.7326Z" fill="#A073F7" _ngcontent-ng-c94869389=""></path>
<path d="M16.394 12.5604L16.1123 12.7593L23.1875 22.7778L23.4691 22.5789L16.394 12.5604Z" fill="#A073F7" _ngcontent-ng-c94869389=""></path>
<path d="M16.774 12.3337L16.4912 12.5337L23.6049 22.591L23.8876 22.391L16.774 12.3337Z" fill="#A073F7" _ngcontent-ng-c94869389=""></path>
<path d="M16.9574 12.1619L16.6758 12.3608L23.751 22.3794L24.0326 22.1805L16.9574 12.1619Z" fill="#A073F7" _ngcontent-ng-c94869389=""></path>
<path d="M17.2387 11.9632L16.957 12.1621L24.0322 22.1807L24.3139 21.9818L17.2387 11.9632Z" fill="#A073F7" _ngcontent-ng-c94869389=""></path>
<path d="M17.6197 11.7336L17.3369 11.9336L24.4506 21.9909L24.7334 21.7909L17.6197 11.7336Z" fill="#A073F7" _ngcontent-ng-c94869389=""></path>
<path d="M17.8002 11.5667L17.5186 11.7656L24.5937 21.7842L24.8754 21.5853L17.8002 11.5667Z" fill="#A073F7" _ngcontent-ng-c94869389=""></path>
<path d="M18.1812 11.3308L17.8984 11.5308L25.0121 21.5881L25.2949 21.3881L18.1812 11.3308Z" fill="#A073F7" _ngcontent-ng-c94869389=""></path>
<path d="M18.3608 11.1688L18.0791 11.3677L25.1543 21.3862L25.4359 21.1873L18.3608 11.1688Z" fill="#A073F7" _ngcontent-ng-c94869389=""></path>
<path d="M18.7447 10.9314L18.4619 11.1313L25.5756 21.1886L25.8584 20.9886L18.7447 10.9314Z" fill="#A073F7" _ngcontent-ng-c94869389=""></path>
<path d="M18.9233 10.7718L18.6416 10.9707L25.7168 20.9893L25.9984 20.7904L18.9233 10.7718Z" fill="#A073F7" _ngcontent-ng-c94869389=""></path>
<path d="M19.2045 10.5726L18.9229 10.7715L25.998 20.7901L26.2797 20.5911L19.2045 10.5726Z" fill="#A073F7" _ngcontent-ng-c94869389=""></path>
<path d="M19.5874 10.3327L19.3047 10.5327L26.4184 20.59L26.7011 20.39L19.5874 10.3327Z" fill="#A073F7" _ngcontent-ng-c94869389=""></path>
<path d="M19.766 10.1766L19.4844 10.3755L26.5596 20.3941L26.8412 20.1951L19.766 10.1766Z" fill="#A073F7" _ngcontent-ng-c94869389=""></path>
<path d="M20.1499 9.93136L19.8672 10.1313L26.9809 20.1886L27.2636 19.9886L20.1499 9.93136Z" fill="#A073F7" _ngcontent-ng-c94869389=""></path>
<path d="M20.3295 9.78009L20.0479 9.979L27.123 19.9976L27.4047 19.7987L20.3295 9.78009Z" fill="#A073F7" _ngcontent-ng-c94869389=""></path>
<path d="M20.7144 9.53243L20.4316 9.73242L27.5453 19.7897L27.8281 19.5897L20.7144 9.53243Z" fill="#A073F7" _ngcontent-ng-c94869389=""></path>
<path d="M20.892 9.38214L20.6104 9.58105L27.6855 19.5996L27.9672 19.4007L20.892 9.38214Z" fill="#A073F7" _ngcontent-ng-c94869389=""></path>
<path d="M21.2759 9.13302L20.9932 9.33301L28.1069 19.3903L28.3896 19.1903L21.2759 9.13302Z" fill="#A073F7" _ngcontent-ng-c94869389=""></path>
<path d="M21.4516 8.98664L21.1699 9.18555L28.2451 19.2041L28.5268 19.0052L21.4516 8.98664Z" fill="#A073F7" _ngcontent-ng-c94869389=""></path>
<path d="M21.7328 8.78791L21.4512 8.98682L28.5264 19.0054L28.808 18.8065L21.7328 8.78791Z" fill="#A073F7" _ngcontent-ng-c94869389=""></path>
<path d="M22.1206 8.53243L21.8379 8.73242L28.9516 18.7897L29.2343 18.5897L22.1206 8.53243Z" fill="#A073F7" _ngcontent-ng-c94869389=""></path>
<path d="M22.2963 8.39142L22.0146 8.59033L29.0898 18.6089L29.3715 18.41L22.2963 8.39142Z" fill="#A073F7" _ngcontent-ng-c94869389=""></path>
<path d="M22.6831 8.13302L22.4004 8.33301L29.5141 18.3903L29.7968 18.1903L22.6831 8.13302Z" fill="#A073F7" _ngcontent-ng-c94869389=""></path>
<path d="M22.5771 8.19109L22.8584 7.99268L29.8394 17.8786V18.077L29.6526 18.21L22.5771 8.19109Z" fill="#A073F7" _ngcontent-ng-c94869389=""></path>
<path d="M22.8584 7.99236L23.1396 7.79395L29.8394 17.2812V17.8783L22.8584 7.99236Z" fill="#A073F7" _ngcontent-ng-c94869389=""></path>
<path d="M23.1387 7.79412L23.4199 7.5957L29.8385 16.6842V17.2813L23.1387 7.79412Z" fill="#A073F7" _ngcontent-ng-c94869389=""></path>
<path d="M23.4199 7.59587L23.6992 7.39746L29.8385 16.0891V16.6843L23.4199 7.59587Z" fill="#A073F7" _ngcontent-ng-c94869389=""></path>
<path d="M23.7002 7.39714L23.9814 7.19873L29.8394 15.4916V16.0888L23.7002 7.39714Z" fill="#A073F7" _ngcontent-ng-c94869389=""></path>
<path d="M23.9814 7.1989L24.2627 7.00049L29.8394 14.8965V15.4918L23.9814 7.1989Z" fill="#A073F7" _ngcontent-ng-c94869389=""></path>
<path d="M24.2627 7.00066L24.5439 6.80225L29.8394 14.2995V14.8967L24.2627 7.00066Z" fill="#A073F7" _ngcontent-ng-c94869389=""></path>
<path d="M24.5439 6.80193L24.8252 6.60352L29.8394 13.7021V14.2992L24.5439 6.80193Z" fill="#A073F7" _ngcontent-ng-c94869389=""></path>
<path d="M24.8242 6.60369L25.1055 6.40527L29.8385 13.107V13.7022L24.8242 6.60369Z" fill="#A073F7" _ngcontent-ng-c94869389=""></path>
<path d="M25.1055 6.40544L25.3867 6.20703L29.8385 12.51V13.1072L25.1055 6.40544Z" fill="#A073F7" _ngcontent-ng-c94869389=""></path>
<path d="M25.3867 6.20671L25.668 6.0083L29.8385 11.9144V12.5097L25.3867 6.20671Z" fill="#A073F7" _ngcontent-ng-c94869389=""></path>
<path d="M25.668 6.00847L25.9492 5.81006L29.8385 11.3175V11.9146L25.668 6.00847Z" fill="#A073F7" _ngcontent-ng-c94869389=""></path>
<path d="M25.9492 5.81022L26.1804 5.64648H26.2536L29.8385 10.7205V11.3176L25.9492 5.81022Z" fill="#A073F7" _ngcontent-ng-c94869389=""></path>
<path d="M26.6758 5.64648L29.8388 10.1252V10.7205L26.2539 5.64648H26.6758Z" fill="#A073F7" _ngcontent-ng-c94869389=""></path>
<path d="M27.0957 5.64648L29.8388 9.52805V10.1252L26.6758 5.64648H27.0957Z" fill="#A073F7" _ngcontent-ng-c94869389=""></path>
<path d="M27.5176 5.64648L29.8388 8.93282V9.52805L27.0957 5.64648H27.5176Z" fill="#A073F7" _ngcontent-ng-c94869389=""></path>
<path d="M27.9394 5.64648L29.8388 8.33565V8.93281L27.5176 5.64648H27.9394Z" fill="#A073F7" _ngcontent-ng-c94869389=""></path>
<path d="M28.3594 5.64648L29.8388 7.73849V8.33565L27.9395 5.64648H28.3594Z" fill="#A073F7" _ngcontent-ng-c94869389=""></path>
<path d="M28.7812 5.64648L29.8388 7.14325V7.73849L28.3594 5.64648H28.7812Z" fill="#A073F7" _ngcontent-ng-c94869389=""></path>
<path d="M29.2031 5.64648L29.8388 6.54608V7.14325L28.7812 5.64648H29.2031Z" fill="#A073F7" _ngcontent-ng-c94869389=""></path>
<path d="M29.6231 5.64648L29.8388 5.95085V6.54608L29.2031 5.64648H29.6231Z" fill="#A073F7" _ngcontent-ng-c94869389=""></path>
<path d="M29.8388 5.95085L29.623 5.64648H29.8388V5.95085Z" fill="#A073F7" _ngcontent-ng-c94869389=""></path>
<path d="M23.8271 43.957L24.1142 44.3635H23.8271V43.957Z" fill="#A073F7" _ngcontent-ng-c94869389=""></path>
<path d="M23.8271 43.3599L24.536 44.3635H24.1142L23.8271 43.957V43.3599Z" fill="#A073F7" _ngcontent-ng-c94869389=""></path>
<path d="M23.8271 42.7646L24.956 44.3635H24.536L23.8271 43.3599V42.7646Z" fill="#A073F7" _ngcontent-ng-c94869389=""></path>
<path d="M23.8271 42.1675L25.3778 44.3635H24.956L23.8271 42.7646V42.1675Z" fill="#A073F7" _ngcontent-ng-c94869389=""></path>
<path d="M23.8271 41.5723L25.7997 44.3635H25.3778L23.8271 42.1675V41.5723Z" fill="#A073F7" _ngcontent-ng-c94869389=""></path>
<path d="M23.8271 40.9751L26.2197 44.3635H25.7997L23.8271 41.5723V40.9751Z" fill="#A073F7" _ngcontent-ng-c94869389=""></path>
<path d="M23.8271 40.3799L26.6415 44.3635H26.2197L23.8271 40.9751V40.3799Z" fill="#A073F7" _ngcontent-ng-c94869389=""></path>
<path d="M23.8271 39.7827L27.0634 44.3635H26.6415L23.8271 40.3799V39.7827Z" fill="#A073F7" _ngcontent-ng-c94869389=""></path>
<path d="M23.8271 39.1855L27.4833 44.3635H27.0634L23.8271 39.7827V39.1855Z" fill="#A073F7" _ngcontent-ng-c94869389=""></path>
<path d="M23.8271 38.5903L27.9052 44.3636H27.4833L23.8271 39.1856V38.5903Z" fill="#A073F7" _ngcontent-ng-c94869389=""></path>
<path d="M23.8271 37.9932L28.3271 44.3636H27.9052L23.8271 38.5903V37.9932Z" fill="#A073F7" _ngcontent-ng-c94869389=""></path>
<path d="M23.8271 37.396L28.747 44.3636H28.3271L23.8271 37.9932V37.396Z" fill="#A073F7" _ngcontent-ng-c94869389=""></path>
<path d="M23.8271 36.8008L29.1689 44.3636H28.747L23.8271 37.396V36.8008Z" fill="#A073F7" _ngcontent-ng-c94869389=""></path>
<path d="M23.8271 36.2036L29.5907 44.3636H29.1689L23.8271 36.8008V36.2036Z" fill="#A073F7" _ngcontent-ng-c94869389=""></path>
<path d="M23.8271 35.6084L30.0107 44.3636H29.5907L23.8271 36.2036V35.6084Z" fill="#A073F7" _ngcontent-ng-c94869389=""></path>
<path d="M23.8271 35.0112L30.4326 44.3636H30.0107L23.8271 35.6084V35.0112Z" fill="#A073F7" _ngcontent-ng-c94869389=""></path>
<path d="M23.8271 34.4141L30.8544 44.3636H30.4326L23.8271 35.0112V34.4141Z" fill="#A073F7" _ngcontent-ng-c94869389=""></path>
<path d="M23.8271 33.8188L31.2744 44.3636H30.8544L23.8271 34.4141V33.8188Z" fill="#A073F7" _ngcontent-ng-c94869389=""></path>
<path d="M23.8271 33.2217L31.6962 44.3636H31.2744L23.8271 33.8188V33.2217Z" fill="#A073F7" _ngcontent-ng-c94869389=""></path>
<path d="M23.8271 32.6265L32.1181 44.3636H31.6962L23.8271 33.2217V32.6265Z" fill="#A073F7" _ngcontent-ng-c94869389=""></path>
<path d="M23.8271 32.0293L32.538 44.3636H32.1181L23.8271 32.6265V32.0293Z" fill="#A073F7" _ngcontent-ng-c94869389=""></path>
<path d="M23.8271 31.4321L32.9522 44.354L32.9368 44.3636H32.538L23.8271 32.0293V31.4321Z" fill="#A073F7" _ngcontent-ng-c94869389=""></path>
<path d="M23.8271 30.8369L33.2335 44.1556L32.9522 44.354L23.8271 31.4322V30.8369Z" fill="#A073F7" _ngcontent-ng-c94869389=""></path>
<path d="M23.8271 30.2397L33.5147 43.9572L33.2335 44.1556L23.8271 30.8369V30.2397Z" fill="#A073F7" _ngcontent-ng-c94869389=""></path>
<path d="M23.8271 29.6426L33.7959 43.7588L33.5147 43.9572L23.8271 30.2397V29.6426Z" fill="#A073F7" _ngcontent-ng-c94869389=""></path>
<path d="M23.8271 29.0474L34.0772 43.5604L33.7959 43.7588L23.8271 29.6426V29.0474Z" fill="#A073F7" _ngcontent-ng-c94869389=""></path>
<path d="M23.8271 28.4502L34.3565 43.362L34.0772 43.5604L23.8271 29.0474V28.4502Z" fill="#A073F7" _ngcontent-ng-c94869389=""></path>
<path d="M23.8271 27.855L34.6378 43.1636L34.3565 43.362L23.8271 28.4502V27.855Z" fill="#A073F7" _ngcontent-ng-c94869389=""></path>
<path d="M23.8271 27.2578L34.919 42.9652L34.6377 43.1636L23.8271 27.855V27.2578Z" fill="#A073F7" _ngcontent-ng-c94869389=""></path>
<path d="M23.8271 26.6626L35.2002 42.7648L34.919 42.9652L23.8271 27.2578V26.6626Z" fill="#A073F7" _ngcontent-ng-c94869389=""></path>
<path d="M23.8271 26.0654L35.4815 42.5664L35.2002 42.7648L23.8271 26.6626V26.0654Z" fill="#A073F7" _ngcontent-ng-c94869389=""></path>
<path d="M23.8271 25.4683L35.7627 42.368L35.4815 42.5664L23.8271 26.0654V25.4683Z" fill="#A073F7" _ngcontent-ng-c94869389=""></path>
<path d="M23.8271 24.873L36.044 42.1696L35.7627 42.368L23.8271 25.4683V24.873Z" fill="#A073F7" _ngcontent-ng-c94869389=""></path>
<path d="M23.8271 24.4202L23.8946 24.3721L36.3252 41.9711L36.044 42.1695L23.8271 24.8729V24.4202Z" fill="#A073F7" _ngcontent-ng-c94869389=""></path>
<path d="M24.3423 24.1496L24.0596 24.3496L36.5563 42.0174L36.839 41.8174L24.3423 24.1496Z" fill="#A073F7" _ngcontent-ng-c94869389=""></path>
<path d="M24.4565 23.9754L24.1748 24.1743L36.6039 41.7741L36.8855 41.5752L24.4565 23.9754Z" fill="#A073F7" _ngcontent-ng-c94869389=""></path>
<path d="M24.9038 23.7482L24.6211 23.9482L37.1178 41.616L37.4006 41.416L24.9038 23.7482Z" fill="#A073F7" _ngcontent-ng-c94869389=""></path>
<path d="M25.0209 23.5794L24.7393 23.7783L37.1683 41.3781L37.45 41.1792L25.0209 23.5794Z" fill="#A073F7" _ngcontent-ng-c94869389=""></path>
<path d="M25.3012 23.3802L25.0195 23.5791L37.4486 41.1789L37.7303 40.98L25.3012 23.3802Z" fill="#A073F7" _ngcontent-ng-c94869389=""></path>
<path d="M25.3008 23.3801L25.582 23.1816L37.9144 40.6458V40.8481L37.7295 40.9791L25.3008 23.3801Z" fill="#A073F7" _ngcontent-ng-c94869389=""></path>
<path d="M25.582 23.1818L25.8613 22.9834L37.9144 40.0488V40.646L25.582 23.1818Z" fill="#A073F7" _ngcontent-ng-c94869389=""></path>
<path d="M25.8613 22.9831L26.1426 22.7847L37.9144 39.4513V40.0485L25.8613 22.9831Z" fill="#A073F7" _ngcontent-ng-c94869389=""></path>
<path d="M26.1426 22.7848L26.4238 22.5864L37.9144 38.8563V39.4515L26.1426 22.7848Z" fill="#A073F7" _ngcontent-ng-c94869389=""></path>
<path d="M26.4238 22.5866L26.7051 22.3882L37.9144 38.2593V38.8564L26.4238 22.5866Z" fill="#A073F7" _ngcontent-ng-c94869389=""></path>
<path d="M26.7051 22.3879L26.9863 22.1895L37.9144 37.6637V38.259L26.7051 22.3879Z" fill="#A073F7" _ngcontent-ng-c94869389=""></path>
<path d="M26.9863 22.1896L27.2676 21.9912L37.9144 37.0667V37.6639L26.9863 22.1896Z" fill="#A073F7" _ngcontent-ng-c94869389=""></path>
<path d="M27.2676 21.9914L27.5488 21.793L37.9144 36.4697V37.0669L27.2676 21.9914Z" fill="#A073F7" _ngcontent-ng-c94869389=""></path>
<path d="M27.5488 21.7927L27.8301 21.5942L37.9144 35.8742V36.4694L27.5488 21.7927Z" fill="#A073F7" _ngcontent-ng-c94869389=""></path>
<path d="M27.8301 21.5944L28.1113 21.396L37.9145 35.2772V35.8743L27.8301 21.5944Z" fill="#A073F7" _ngcontent-ng-c94869389=""></path>
<path d="M28.1113 21.3962L28.3906 21.1978L37.9145 34.6821V35.2774L28.1113 21.3962Z" fill="#A073F7" _ngcontent-ng-c94869389=""></path>
<path d="M28.3906 21.1974L28.6719 20.999L37.9144 34.0846V34.6818L28.3906 21.1974Z" fill="#A073F7" _ngcontent-ng-c94869389=""></path>
<path d="M28.6719 20.9992L28.9531 20.8008L37.9144 33.4876V34.0848L28.6719 20.9992Z" fill="#A073F7" _ngcontent-ng-c94869389=""></path>
<path d="M28.9531 20.8009L29.2344 20.6006L37.9144 32.8925V33.4878L28.9531 20.8009Z" fill="#A073F7" _ngcontent-ng-c94869389=""></path>
<path d="M29.2344 20.6003L29.5156 20.4038L37.9145 32.2951V32.8923L29.2344 20.6003Z" fill="#A073F7" _ngcontent-ng-c94869389=""></path>
<path d="M29.5156 20.404L29.7969 20.2056L37.9145 31.7V32.2953L29.5156 20.404Z" fill="#A073F7" _ngcontent-ng-c94869389=""></path>
<path d="M29.7969 20.2057L30.0781 20.0054L37.9145 31.103V31.7002L29.7969 20.2057Z" fill="#A073F7" _ngcontent-ng-c94869389=""></path>
<path d="M30.0781 20.0051L30.3594 19.8066L37.9145 30.5055V31.1027L30.0781 20.0051Z" fill="#A073F7" _ngcontent-ng-c94869389=""></path>
<path d="M30.3594 19.8068L30.6406 19.6084L37.9145 29.9104V30.5057L30.3594 19.8068Z" fill="#A073F7" _ngcontent-ng-c94869389=""></path>
<path d="M30.6406 19.6086L30.9219 19.4102L37.9145 29.3135V29.9106L30.6406 19.6086Z" fill="#A073F7" _ngcontent-ng-c94869389=""></path>
<path d="M30.9219 19.4098L31.2012 19.2114L37.9145 28.716V29.3131L30.9219 19.4098Z" fill="#A073F7" _ngcontent-ng-c94869389=""></path>
<path d="M31.2012 19.2116L31.4824 19.0132L37.9145 28.1209V28.7161L31.2012 19.2116Z" fill="#A073F7" _ngcontent-ng-c94869389=""></path>
<path d="M31.4824 19.0129L31.7637 18.8145L37.9145 27.5234V28.1206L31.4824 19.0129Z" fill="#A073F7" _ngcontent-ng-c94869389=""></path>
<path d="M31.7637 18.8146L32.0449 18.6162L37.9145 26.9284V27.5236L31.7637 18.8146Z" fill="#A073F7" _ngcontent-ng-c94869389=""></path>
<path d="M32.0449 18.6164L32.3262 18.418L37.9145 26.3314V26.9285L32.0449 18.6164Z" fill="#A073F7" _ngcontent-ng-c94869389=""></path>
<path d="M32.3262 18.4177L32.6074 18.2192L37.9145 25.7339V26.331L32.3262 18.4177Z" fill="#A073F7" _ngcontent-ng-c94869389=""></path>
<path d="M32.6074 18.2194L32.8887 18.021L37.9145 25.1388V25.734L32.6074 18.2194Z" fill="#A073F7" _ngcontent-ng-c94869389=""></path>
<path d="M32.8887 18.0212L33.1699 17.8228L37.9145 24.5418V25.139L32.8887 18.0212Z" fill="#A073F7" _ngcontent-ng-c94869389=""></path>
<path d="M33.1699 17.8224L33.4512 17.624L37.9145 23.9463V24.5415L33.1699 17.8224Z" fill="#A073F7" _ngcontent-ng-c94869389=""></path>
<path d="M33.4512 17.6242L33.7305 17.4258L37.9145 23.3493V23.9464L33.4512 17.6242Z" fill="#A073F7" _ngcontent-ng-c94869389=""></path>
<path d="M33.7305 17.426L34.0117 17.2275L37.9145 22.7523V23.3494L33.7305 17.426Z" fill="#A073F7" _ngcontent-ng-c94869389=""></path>
<path d="M34.0117 17.2273L34.1812 17.1079H34.3488L37.9145 22.1568V22.7521L34.0117 17.2273Z" fill="#A073F7" _ngcontent-ng-c94869389=""></path>
<path d="M34.7705 17.1079L37.9143 21.5597V22.1568L34.3486 17.1079H34.7705Z" fill="#A073F7" _ngcontent-ng-c94869389=""></path>
<path d="M35.1904 17.1079L37.9143 20.9644V21.5597L34.7705 17.1079H35.1904Z" fill="#A073F7" _ngcontent-ng-c94869389=""></path>
<path d="M35.6123 17.1079L37.9143 20.3673V20.9644L35.1904 17.1079H35.6123Z" fill="#A073F7" _ngcontent-ng-c94869389=""></path>
<path d="M36.0342 17.1079L37.9143 19.7701V20.3673L35.6123 17.1079H36.0342Z" fill="#A073F7" _ngcontent-ng-c94869389=""></path>
<path d="M36.4541 17.1079L37.9143 19.1749V19.7701L36.0342 17.1079H36.4541Z" fill="#A073F7" _ngcontent-ng-c94869389=""></path>
<path d="M36.876 17.1079L37.9143 18.5777V19.1749L36.4541 17.1079H36.876Z" fill="#A073F7" _ngcontent-ng-c94869389=""></path>
<path d="M37.2978 17.1079L37.9143 17.9805V18.5777L36.876 17.1079H37.2978Z" fill="#A073F7" _ngcontent-ng-c94869389=""></path>
<path d="M37.7178 17.1079L37.9143 17.3853V17.9805L37.2979 17.1079H37.7178Z" fill="#A073F7" _ngcontent-ng-c94869389=""></path>
<path d="M37.9143 17.3853L37.7178 17.1079H37.9143V17.3853Z" fill="#A073F7" _ngcontent-ng-c94869389=""></path>
<path d="M34.2197 36.6064L34.2236 36.6103H34.2197V36.6064Z" fill="#A073F7" _ngcontent-ng-c94869389=""></path>
<path d="M34.2197 36.0112L34.6435 36.6103H34.2236L34.2197 36.6065V36.0112Z" fill="#A073F7" _ngcontent-ng-c94869389=""></path>
<path d="M34.2197 35.4141L35.0654 36.6103H34.6435L34.2197 36.0112V35.4141Z" fill="#A073F7" _ngcontent-ng-c94869389=""></path>
<path d="M34.2197 34.8169L35.4873 36.6103H35.0654L34.2197 35.4141V34.8169Z" fill="#A073F7" _ngcontent-ng-c94869389=""></path>
<path d="M34.2197 34.2217L35.9072 36.6103H35.4873L34.2197 34.8169V34.2217Z" fill="#A073F7" _ngcontent-ng-c94869389=""></path>
<path d="M34.2197 33.6245L36.3291 36.6103H35.9072L34.2197 34.2217V33.6245Z" fill="#A073F7" _ngcontent-ng-c94869389=""></path>
<path d="M34.2197 33.0293L36.7509 36.6104H36.3291L34.2197 33.6245V33.0293Z" fill="#A073F7" _ngcontent-ng-c94869389=""></path>
<path d="M34.2197 32.4321L37.1709 36.6104H36.7509L34.2197 33.0293V32.4321Z" fill="#A073F7" _ngcontent-ng-c94869389=""></path>
<path d="M34.2197 31.835L37.5927 36.6104H37.1709L34.2197 32.4321V31.835Z" fill="#A073F7" _ngcontent-ng-c94869389=""></path>
<path d="M34.2197 31.2397L38.0127 36.6104H37.5927L34.2197 31.835V31.2397Z" fill="#A073F7" _ngcontent-ng-c94869389=""></path>
<path d="M34.2197 30.6426L38.4326 36.6084L38.4307 36.6104H38.0127L34.2197 31.2397V30.6426Z" fill="#A073F7" _ngcontent-ng-c94869389=""></path>
<path d="M34.2197 30.0454L38.7139 36.41L38.4326 36.6084L34.2197 30.6426V30.0454Z" fill="#A073F7" _ngcontent-ng-c94869389=""></path>
<path d="M34.2197 29.4502L38.9951 36.2116L38.7139 36.41L34.2197 30.0454V29.4502Z" fill="#A073F7" _ngcontent-ng-c94869389=""></path>
<path d="M34.2197 28.853L39.2764 36.0132L38.9951 36.2116L34.2197 29.4502V28.853Z" fill="#A073F7" _ngcontent-ng-c94869389=""></path>
<path d="M34.2197 28.2578L39.5576 35.8148L39.2764 36.0132L34.2197 28.853V28.2578Z" fill="#A073F7" _ngcontent-ng-c94869389=""></path>
<path d="M34.2197 27.6606L39.8389 35.6164L39.5576 35.8148L34.2197 28.2578V27.6606Z" fill="#A073F7" _ngcontent-ng-c94869389=""></path>
<path d="M34.2197 27.0635L40.1201 35.418L39.8389 35.6164L34.2197 27.6606V27.0635Z" fill="#A073F7" _ngcontent-ng-c94869389=""></path>
<path d="M34.2197 26.9669L34.4547 26.8013L40.4013 35.2194L40.1201 35.4178L34.2197 27.0633V26.9669Z" fill="#A073F7" _ngcontent-ng-c94869389=""></path>
<path d="M34.7367 26.6033L34.4551 26.8022L40.4001 35.2205L40.6818 35.0216L34.7367 26.6033Z" fill="#A073F7" _ngcontent-ng-c94869389=""></path>
<path d="M35.018 26.4041L34.7363 26.603L40.6814 35.0213L40.9631 34.8224L35.018 26.4041Z" fill="#A073F7" _ngcontent-ng-c94869389=""></path>
<path d="M35.2992 26.2049L35.0176 26.4038L40.9626 34.8221L41.2443 34.6232L35.2992 26.2049Z" fill="#A073F7" _ngcontent-ng-c94869389=""></path>
<path d="M35.5805 26.0076L35.2988 26.2065L41.2439 34.6248L41.5256 34.4259L35.5805 26.0076Z" fill="#A073F7" _ngcontent-ng-c94869389=""></path>
<path d="M35.8608 25.8089L35.5791 26.0078L41.5242 34.4261L41.8058 34.2272L35.8608 25.8089Z" fill="#A073F7" _ngcontent-ng-c94869389=""></path>
<path d="M36.142 25.6097L35.8604 25.8086L41.8054 34.2269L42.0871 34.028L36.142 25.6097Z" fill="#A073F7" _ngcontent-ng-c94869389=""></path>
<path d="M36.4252 25.4124L36.1436 25.6113L42.0886 34.0296L42.3703 33.8307L36.4252 25.4124Z" fill="#A073F7" _ngcontent-ng-c94869389=""></path>
<path d="M36.7045 25.2147L36.4229 25.4136L42.3679 33.8319L42.6496 33.633L36.7045 25.2147Z" fill="#A073F7" _ngcontent-ng-c94869389=""></path>
<path d="M36.9848 25.0154L36.7031 25.2144L42.6482 33.6327L42.9298 33.4338L36.9848 25.0154Z" fill="#A073F7" _ngcontent-ng-c94869389=""></path>
<path d="M37.266 24.8162L36.9844 25.0151L42.9294 33.4334L43.2111 33.2345L37.266 24.8162Z" fill="#A073F7" _ngcontent-ng-c94869389=""></path>
<path d="M37.5473 24.619L37.2656 24.8179L43.2107 33.2362L43.4923 33.0373L37.5473 24.619Z" fill="#A073F7" _ngcontent-ng-c94869389=""></path>
<path d="M37.8276 24.4197L37.5459 24.6187L43.491 33.037L43.7726 32.838L37.8276 24.4197Z" fill="#A073F7" _ngcontent-ng-c94869389=""></path>
<path d="M38.1108 24.221L37.8291 24.4199L43.7742 32.8382L44.0558 32.6393L38.1108 24.221Z" fill="#A073F7" _ngcontent-ng-c94869389=""></path>
<path d="M38.392 24.0237L38.1104 24.2227L44.0554 32.641L44.3371 32.4421L38.392 24.0237Z" fill="#A073F7" _ngcontent-ng-c94869389=""></path>
<path d="M38.6723 23.8245L38.3906 24.0234L44.3357 32.4417L44.6173 32.2428L38.6723 23.8245Z" fill="#A073F7" _ngcontent-ng-c94869389=""></path>
<path d="M38.9535 23.6253L38.6719 23.8242L44.6169 32.2425L44.8986 32.0436L38.9535 23.6253Z" fill="#A073F7" _ngcontent-ng-c94869389=""></path>
<path d="M39.2328 23.4295L38.9512 23.6284L44.8962 32.0467L45.1779 31.8478L39.2328 23.4295Z" fill="#A073F7" _ngcontent-ng-c94869389=""></path>
<path d="M39.5141 23.2303L39.2324 23.4292L45.1775 31.8475L45.4591 31.6486L39.5141 23.2303Z" fill="#A073F7" _ngcontent-ng-c94869389=""></path>
<path d="M39.7953 23.0311L39.5137 23.23L45.4587 31.6483L45.7404 31.4494L39.7953 23.0311Z" fill="#A073F7" _ngcontent-ng-c94869389=""></path>
<path d="M40.0776 22.8323L39.7959 23.0312L45.741 31.4496L46.0226 31.2506L40.0776 22.8323Z" fill="#A073F7" _ngcontent-ng-c94869389=""></path>
<path d="M40.0752 22.8313L40.2543 22.7061H40.4085L46.3011 31.0509L46.0199 31.2494L40.0752 22.8313Z" fill="#A073F7" _ngcontent-ng-c94869389=""></path>
<path d="M40.831 22.7061L46.5831 30.8525L46.3018 31.0509L40.4092 22.7061H40.831Z" fill="#A073F7" _ngcontent-ng-c94869389=""></path>
<path d="M41.251 22.7061L46.8643 30.6541L46.5831 30.8525L40.8311 22.7061H41.251Z" fill="#A073F7" _ngcontent-ng-c94869389=""></path>
<path d="M41.6728 22.7061L47.1456 30.4557L46.8643 30.6541L41.251 22.7061H41.6728Z" fill="#A073F7" _ngcontent-ng-c94869389=""></path>
<path d="M42.0947 22.7061L47.4268 30.2573L47.1456 30.4557L41.6729 22.7061H42.0947Z" fill="#A073F7" _ngcontent-ng-c94869389=""></path>
<path d="M42.5147 22.7061L47.7081 30.0589L47.4268 30.2573L42.0947 22.7061H42.5147Z" fill="#A073F7" _ngcontent-ng-c94869389=""></path>
<path d="M42.9365 22.7061L47.7158 29.4733V30.0531L47.7081 30.0589L42.5146 22.7061H42.9365Z" fill="#A073F7" _ngcontent-ng-c94869389=""></path>
<path d="M43.3584 22.7061L47.7158 28.8761V29.4733L42.9365 22.7061H43.3584Z" fill="#A073F7" _ngcontent-ng-c94869389=""></path>
<path d="M43.7783 22.7061L47.7158 28.2809V28.8761L43.3584 22.7061H43.7783Z" fill="#A073F7" _ngcontent-ng-c94869389=""></path>
<path d="M44.2002 22.7061L47.7158 27.6837V28.2809L43.7783 22.7061H44.2002Z" fill="#A073F7" _ngcontent-ng-c94869389=""></path>
<path d="M44.6201 22.7061L47.7158 27.0885V27.6837L44.2002 22.7061H44.6201Z" fill="#A073F7" _ngcontent-ng-c94869389=""></path>
<path d="M45.042 22.7061L47.7157 26.4913V27.0885L44.6201 22.7061H45.042Z" fill="#A073F7" _ngcontent-ng-c94869389=""></path>
<path d="M45.4639 22.7061L47.7157 25.8941V26.4913L45.042 22.7061H45.4639Z" fill="#A073F7" _ngcontent-ng-c94869389=""></path>
<path d="M45.8838 22.7061L47.7158 25.2989V25.8941L45.4639 22.7061H45.8838Z" fill="#A073F7" _ngcontent-ng-c94869389=""></path>
<path d="M46.3057 22.7061L47.7157 24.7017V25.2989L45.8838 22.7061H46.3057Z" fill="#A073F7" _ngcontent-ng-c94869389=""></path>
<path d="M46.7275 22.7061L47.7157 24.1065V24.7017L46.3057 22.7061H46.7275Z" fill="#A073F7" _ngcontent-ng-c94869389=""></path>
<path d="M47.1475 22.7061L47.7157 23.5093V24.1065L46.7275 22.7061H47.1475Z" fill="#A073F7" _ngcontent-ng-c94869389=""></path>
<path d="M47.5693 22.7061L47.7157 22.9122V23.5093L47.1475 22.7061H47.5693Z" fill="#A073F7" _ngcontent-ng-c94869389=""></path>
<path d="M47.7157 22.9122L47.5693 22.7061H47.7157V22.9122Z" fill="#A073F7" _ngcontent-ng-c94869389=""></path>
<path d="M0 18.5044L0.248497 18.3271L22.619 50H0V18.5044Z" fill="#A073F7" _ngcontent-ng-c94869389=""></path>
<path d="M0.248047 18.3273L0.529292 18.1289L23.0385 50.0002H22.6186L0.248047 18.3273Z" fill="#A073F7" _ngcontent-ng-c94869389=""></path>
<path d="M0.529297 18.1291L0.810542 17.9307L23.4604 50.0003H23.0385L0.529297 18.1291Z" fill="#A073F7" _ngcontent-ng-c94869389=""></path>
<path d="M0.810547 17.9303L1.09179 17.7319L23.8804 50H23.4604L0.810547 17.9303Z" fill="#A073F7" _ngcontent-ng-c94869389=""></path>
<path d="M1.0918 17.7321L1.37304 17.5337L24.3022 50.0002H23.8804L1.0918 17.7321Z" fill="#A073F7" _ngcontent-ng-c94869389=""></path>
<path d="M1.37305 17.5339L1.65429 17.3354L24.7241 50.0004H24.3022L1.37305 17.5339Z" fill="#A073F7" _ngcontent-ng-c94869389=""></path>
<path d="M1.6543 17.3351L1.93554 17.1367L25.1441 50H24.7241L1.6543 17.3351Z" fill="#A073F7" _ngcontent-ng-c94869389=""></path>
<path d="M1.93555 17.1369L2.21679 16.9385L25.5659 50.0002H25.1441L1.93555 17.1369Z" fill="#A073F7" _ngcontent-ng-c94869389=""></path>
<path d="M2.2168 16.9386L2.49804 16.7402L25.9878 50.0004H25.5659L2.2168 16.9386Z" fill="#A073F7" _ngcontent-ng-c94869389=""></path>
<path d="M2.49805 16.7399L2.77929 16.5415L26.4077 50H25.9878L2.49805 16.7399Z" fill="#A073F7" _ngcontent-ng-c94869389=""></path>
<path d="M2.7793 16.5417L3.05862 16.3433L26.8296 50.0002H26.4077L2.7793 16.5417Z" fill="#A073F7" _ngcontent-ng-c94869389=""></path>
<path d="M3.05859 16.3434L3.33984 16.145L27.2515 50.0004H26.8296L3.05859 16.3434Z" fill="#A073F7" _ngcontent-ng-c94869389=""></path>
<path d="M3.33984 16.1447L3.62109 15.9463L27.6733 50.0001H27.2515L3.33984 16.1447Z" fill="#A073F7" _ngcontent-ng-c94869389=""></path>
<path d="M3.62109 15.9465L3.90234 15.748L28.0933 50.0002H27.6733L3.62109 15.9465Z" fill="#A073F7" _ngcontent-ng-c94869389=""></path>
<path d="M3.90234 15.7477L4.18359 15.5493L28.5152 49.9999H28.0933L3.90234 15.7477Z" fill="#A073F7" _ngcontent-ng-c94869389=""></path>
<path d="M4.18359 15.5495L4.46484 15.3511L28.937 50.0001H28.5152L4.18359 15.5495Z" fill="#A073F7" _ngcontent-ng-c94869389=""></path>
<path d="M4.46484 15.3512L4.74609 15.1528L29.357 50.0003H28.937L4.46484 15.3512Z" fill="#A073F7" _ngcontent-ng-c94869389=""></path>
<path d="M4.74609 15.1525L5.02734 14.9521L29.7788 49.9999H29.357L4.74609 15.1525Z" fill="#A073F7" _ngcontent-ng-c94869389=""></path>
<path d="M5.02734 14.9523L5.30859 14.7539L30.2007 50.0001H29.7788L5.02734 14.9523Z" fill="#A073F7" _ngcontent-ng-c94869389=""></path>
<path d="M5.30859 14.7541L5.58984 14.5557L30.6207 50.0003H30.2007L5.30859 14.7541Z" fill="#A073F7" _ngcontent-ng-c94869389=""></path>
<path d="M5.58984 14.5553L5.86916 14.3569L31.0425 49.9999H30.6207L5.58984 14.5553Z" fill="#A073F7" _ngcontent-ng-c94869389=""></path>
<path d="M5.86914 14.3571L6.15039 14.1587L31.4625 50.0001H31.0425L5.86914 14.3571Z" fill="#A073F7" _ngcontent-ng-c94869389=""></path>
<path d="M6.15039 14.1589L6.43164 13.9604L31.8843 50.0003H31.4625L6.15039 14.1589Z" fill="#A073F7" _ngcontent-ng-c94869389=""></path>
<path d="M6.43164 13.9601L6.71289 13.7617L32.3062 50H31.8843L6.43164 13.9601Z" fill="#A073F7" _ngcontent-ng-c94869389=""></path>
<path d="M6.71289 13.7619L6.99414 13.5635L32.7261 50.0001H32.3062L6.71289 13.7619Z" fill="#A073F7" _ngcontent-ng-c94869389=""></path>
<path d="M6.99414 13.5636L7.27539 13.3652L33.0844 49.9098L32.9592 50.0003H32.7262L6.99414 13.5636Z" fill="#A073F7" _ngcontent-ng-c94869389=""></path>
<path d="M7.55607 13.1668L7.27441 13.3657L33.0838 49.9122L33.3654 49.7133L7.55607 13.1668Z" fill="#A073F7" _ngcontent-ng-c94869389=""></path>
<path d="M7.93314 12.9309L7.65039 13.1309L33.6002 49.8186L33.883 49.6186L7.93314 12.9309Z" fill="#A073F7" _ngcontent-ng-c94869389=""></path>
<path d="M8.11857 12.7698L7.83691 12.9688L33.6463 49.5152L33.9279 49.3163L8.11857 12.7698Z" fill="#A073F7" _ngcontent-ng-c94869389=""></path>
<path d="M8.39982 12.5706L8.11816 12.7695L33.9275 49.316L34.2092 49.1171L8.39982 12.5706Z" fill="#A073F7" _ngcontent-ng-c94869389=""></path>
<path d="M8.77494 12.3322L8.49219 12.5322L34.442 49.2199L34.7248 49.0199L8.77494 12.3322Z" fill="#A073F7" _ngcontent-ng-c94869389=""></path>
<path d="M8.96135 12.1746L8.67969 12.3735L34.489 48.92L34.7707 48.7211L8.96135 12.1746Z" fill="#A073F7" _ngcontent-ng-c94869389=""></path>
<path d="M9.33744 11.9309L9.05469 12.1309L35.0045 48.8186L35.2873 48.6186L9.33744 11.9309Z" fill="#A073F7" _ngcontent-ng-c94869389=""></path>
<path d="M9.52482 11.7781L9.24316 11.9771L35.0525 48.5235L35.3342 48.3246L9.52482 11.7781Z" fill="#A073F7" _ngcontent-ng-c94869389=""></path>
<path d="M9.80607 11.5789L9.52441 11.7778L35.3338 48.3243L35.6154 48.1254L9.80607 11.5789Z" fill="#A073F7" _ngcontent-ng-c94869389=""></path>
<path d="M10.0873 11.3802L9.80566 11.5791L35.615 48.1256L35.8967 47.9266L10.0873 11.3802Z" fill="#A073F7" _ngcontent-ng-c94869389=""></path>
<path d="M10.3676 11.181L10.0859 11.3799L35.8953 47.9263L36.1769 47.7274L10.3676 11.181Z" fill="#A073F7" _ngcontent-ng-c94869389=""></path>
<path d="M10.7456 10.9318L10.4629 11.1318L36.4127 47.8195L36.6955 47.6195L10.7456 10.9318Z" fill="#A073F7" _ngcontent-ng-c94869389=""></path>
<path d="M10.9281 10.786L10.6465 10.9849L36.4558 47.5313L36.7375 47.3324L10.9281 10.786Z" fill="#A073F7" _ngcontent-ng-c94869389=""></path>
<path d="M11.2113 10.5867L10.9297 10.7856L36.739 47.3321L37.0207 47.1332L11.2113 10.5867Z" fill="#A073F7" _ngcontent-ng-c94869389=""></path>
<path d="M11.4926 10.3895L11.2109 10.5884L37.0203 47.1348L37.3019 46.9359L11.4926 10.3895Z" fill="#A073F7" _ngcontent-ng-c94869389=""></path>
<path d="M11.8706 10.1325L11.5879 10.3325L37.5377 47.0202L37.8205 46.8202L11.8706 10.1325Z" fill="#A073F7" _ngcontent-ng-c94869389=""></path>
<path d="M12.0541 9.99152L11.7725 10.1904L37.5818 46.7369L37.8635 46.538L12.0541 9.99152Z" fill="#A073F7" _ngcontent-ng-c94869389=""></path>
<path d="M12.3354 9.7923L12.0537 9.99121L37.8631 46.5377L38.1447 46.3388L12.3354 9.7923Z" fill="#A073F7" _ngcontent-ng-c94869389=""></path>
<path d="M12.7144 9.53243L12.4316 9.73242L38.3815 46.4201L38.6642 46.2201L12.7144 9.53243Z" fill="#A073F7" _ngcontent-ng-c94869389=""></path>
<path d="M12.8988 9.39582L12.6172 9.59473L38.4265 46.1412L38.7082 45.9423L12.8988 9.39582Z" fill="#A073F7" _ngcontent-ng-c94869389=""></path>
<path d="M13.2788 9.13106L12.9961 9.33105L38.9459 46.0188L39.2287 45.8188L13.2788 9.13106Z" fill="#A073F7" _ngcontent-ng-c94869389=""></path>
<path d="M13.4594 9.0008L13.1777 9.19971L38.9871 45.7462L39.2687 45.5473L13.4594 9.0008Z" fill="#A073F7" _ngcontent-ng-c94869389=""></path>
<path d="M13.8394 8.73311L13.5566 8.93311L39.5065 45.6208L39.7892 45.4208L13.8394 8.73311Z" fill="#A073F7" _ngcontent-ng-c94869389=""></path>
<path d="M14.0209 8.60236L13.7393 8.80127L39.5486 45.3477L39.8303 45.1488L14.0209 8.60236Z" fill="#A073F7" _ngcontent-ng-c94869389=""></path>
<path d="M14.4019 8.33175L14.1191 8.53174L40.069 45.2194L40.3517 45.0195L14.4019 8.33175Z" fill="#A073F7" _ngcontent-ng-c94869389=""></path>
<path d="M14.5824 8.20636L14.3008 8.40527L40.1101 44.9517L40.3918 44.7528L14.5824 8.20636Z" fill="#A073F7" _ngcontent-ng-c94869389=""></path>
<path d="M14.8656 8.00714L14.584 8.20605L40.3933 44.7525L40.675 44.5536L14.8656 8.00714Z" fill="#A073F7" _ngcontent-ng-c94869389=""></path>
<path d="M15.2466 7.73018L14.9639 7.93018L40.9137 44.6179L41.1965 44.4179L15.2466 7.73018Z" fill="#A073F7" _ngcontent-ng-c94869389=""></path>
<path d="M15.4262 7.60919L15.1445 7.80811L40.9539 44.3546L41.2355 44.1556L15.4262 7.60919Z" fill="#A073F7" _ngcontent-ng-c94869389=""></path>
<path d="M15.8091 7.33126L15.5264 7.53125L41.4762 44.219L41.759 44.019L15.8091 7.33126Z" fill="#A073F7" _ngcontent-ng-c94869389=""></path>
<path d="M15.9867 7.21222L15.7051 7.41113L41.5144 43.9576L41.7961 43.7587L15.9867 7.21222Z" fill="#A073F7" _ngcontent-ng-c94869389=""></path>
<path d="M16.3697 6.93087L16.0869 7.13086L42.0368 43.8186L42.3195 43.6186L16.3697 6.93087Z" fill="#A073F7" _ngcontent-ng-c94869389=""></path>
<path d="M16.5502 6.81574L16.2686 7.01465L42.0779 43.5611L42.3596 43.3622L16.5502 6.81574Z" fill="#A073F7" _ngcontent-ng-c94869389=""></path>
<path d="M16.8315 6.61701L16.5498 6.81592L42.3592 43.3624L42.6408 43.1635L16.8315 6.61701Z" fill="#A073F7" _ngcontent-ng-c94869389=""></path>
<path d="M17.2154 6.33126L16.9326 6.53125L42.8825 43.219L43.1652 43.019L17.2154 6.33126Z" fill="#A073F7" _ngcontent-ng-c94869389=""></path>
<path d="M17.394 6.22052L17.1123 6.41943L42.9217 42.9659L43.2033 42.767L17.394 6.22052Z" fill="#A073F7" _ngcontent-ng-c94869389=""></path>
<path d="M17.6742 6.0213L17.3926 6.22021L43.2019 42.7667L43.4836 42.5678L17.6742 6.0213Z" fill="#A073F7" _ngcontent-ng-c94869389=""></path>
<path d="M17.9555 5.82258L17.6738 6.02148L43.4832 42.5679L43.7648 42.369L17.9555 5.82258Z" fill="#A073F7" _ngcontent-ng-c94869389=""></path>
<path d="M18.2387 5.62531L17.957 5.82422L43.7664 42.3707L44.048 42.1718L18.2387 5.62531Z" fill="#A073F7" _ngcontent-ng-c94869389=""></path>
<path d="M18.518 5.42707L18.2363 5.62598L44.0457 42.1724L44.3273 41.9735L18.518 5.42707Z" fill="#A073F7" _ngcontent-ng-c94869389=""></path>
<path d="M18.9029 5.13253L18.6201 5.33252L44.57 42.0202L44.8527 41.8202L18.9029 5.13253Z" fill="#A073F7" _ngcontent-ng-c94869389=""></path>
<path d="M19.0795 5.02912L18.7979 5.22803L44.6072 41.7745L44.8889 41.5756L19.0795 5.02912Z" fill="#A073F7" _ngcontent-ng-c94869389=""></path>
<path d="M19.3608 4.83185L19.0791 5.03076L44.8885 41.5772L45.1701 41.3783L19.3608 4.83185Z" fill="#A073F7" _ngcontent-ng-c94869389=""></path>
<path d="M19.641 4.63263L19.3594 4.83154L45.1687 41.378L45.4504 41.1791L19.641 4.63263Z" fill="#A073F7" _ngcontent-ng-c94869389=""></path>
<path d="M19.9242 4.4339L19.6426 4.63281L45.4519 41.1793L45.7336 40.9804L19.9242 4.4339Z" fill="#A073F7" _ngcontent-ng-c94869389=""></path>
<path d="M20.3101 4.13302L20.0273 4.33301L45.9772 41.0207L46.2599 40.8207L20.3101 4.13302Z" fill="#A073F7" _ngcontent-ng-c94869389=""></path>
<path d="M20.4858 4.03742L20.2041 4.23633L46.0135 40.7828L46.2951 40.5839L20.4858 4.03742Z" fill="#A073F7" _ngcontent-ng-c94869389=""></path>
<path d="M20.767 3.8382L20.4854 4.03711L46.2947 40.5836L46.5764 40.3846L20.767 3.8382Z" fill="#A073F7" _ngcontent-ng-c94869389=""></path>
<path d="M21.0463 3.64044L20.7646 3.83936L46.574 40.3858L46.8557 40.1869L21.0463 3.64044Z" fill="#A073F7" _ngcontent-ng-c94869389=""></path>
<path d="M21.3276 3.44318L21.0459 3.64209L46.8553 40.1885L47.1369 39.9896L21.3276 3.44318Z" fill="#A073F7" _ngcontent-ng-c94869389=""></path>
<path d="M21.7173 3.13301L21.4346 3.33301L47.3844 40.0207L47.6672 39.8207L21.7173 3.13301Z" fill="#A073F7" _ngcontent-ng-c94869389=""></path>
<path d="M21.891 3.04474L21.6094 3.24365L47.4187 39.7901L47.7004 39.5912L21.891 3.04474Z" fill="#A073F7" _ngcontent-ng-c94869389=""></path>
<path d="M22.2798 2.73409L21.9971 2.93408L47.9469 39.6218L48.2297 39.4218L22.2798 2.73409Z" fill="#A073F7" _ngcontent-ng-c94869389=""></path>
<path d="M22.4535 2.64875L22.1719 2.84766L47.9812 39.3941L48.2629 39.1952L22.4535 2.64875Z" fill="#A073F7" _ngcontent-ng-c94869389=""></path>
<path d="M22.8413 2.33272L22.5586 2.53271L48.5084 39.2204L48.7912 39.0204L22.8413 2.33272Z" fill="#A073F7" _ngcontent-ng-c94869389=""></path>
<path d="M23.0141 2.24884L22.7324 2.44775L48.5418 38.9942L48.8234 38.7953L23.0141 2.24884Z" fill="#A073F7" _ngcontent-ng-c94869389=""></path>
<path d="M23.2963 2.05158L23.0146 2.25049L48.824 38.7969L49.1057 38.598L23.2963 2.05158Z" fill="#A073F7" _ngcontent-ng-c94869389=""></path>
<path d="M23.5776 1.85285L23.2959 2.05176L49.1053 38.5982L49.3869 38.3993L23.5776 1.85285Z" fill="#A073F7" _ngcontent-ng-c94869389=""></path>
<path d="M23.8569 1.65461L23.5752 1.85352L49.3845 38.4L49.6662 38.2011L23.8569 1.65461Z" fill="#A073F7" _ngcontent-ng-c94869389=""></path>
<path d="M24.2466 1.33321L23.9639 1.5332L49.9137 38.2209L50.1965 38.0209L24.2466 1.33321Z" fill="#A073F7" _ngcontent-ng-c94869389=""></path>
<path d="M24.4194 1.25812L24.1377 1.45703L49.947 38.0035L50.2287 37.8046L24.4194 1.25812Z" fill="#A073F7" _ngcontent-ng-c94869389=""></path>
<path d="M24.8091 0.931843L24.5264 1.13184L50.4762 37.8195L50.759 37.6195L24.8091 0.931843Z" fill="#A073F7" _ngcontent-ng-c94869389=""></path>
<path d="M24.9828 0.860173L24.7012 1.05908L50.5105 37.6055L50.7922 37.4066L24.9828 0.860173Z" fill="#A073F7" _ngcontent-ng-c94869389=""></path>
<path d="M25.3736 0.532429L25.0908 0.732422L51.0407 37.4201L51.3234 37.2201L25.3736 0.532429Z" fill="#A073F7" _ngcontent-ng-c94869389=""></path>
<path d="M25.5444 0.463689L25.2627 0.662598L51.0721 37.2091L51.3537 37.0101L25.5444 0.463689Z" fill="#A073F7" _ngcontent-ng-c94869389=""></path>
<path d="M25.8256 0.264957L25.5439 0.463867L51.3533 37.0103L51.635 36.8114L25.8256 0.264957Z" fill="#A073F7" _ngcontent-ng-c94869389=""></path>
<path d="M26.2173 -0.0671791L25.9346 0.132812L51.8844 36.8205L52.1672 36.6205L26.2173 -0.0671791Z" fill="#A073F7" _ngcontent-ng-c94869389=""></path>
<path d="M26.1055 0.0674218L26.1999 0H26.4792L52.1958 36.4135L51.9145 36.612L26.1055 0.0674218Z" fill="#A073F7" _ngcontent-ng-c94869389=""></path>
<path d="M26.8994 0L52.4773 36.2151L52.1961 36.4135L26.4795 0H26.8994Z" fill="#A073F7" _ngcontent-ng-c94869389=""></path>
<path d="M27.3213 0L52.7586 36.0167L52.4773 36.2151L26.8994 0H27.3213Z" fill="#A073F7" _ngcontent-ng-c94869389=""></path>
<path d="M27.7432 0L53.0398 35.8183L52.7586 36.0167L27.3213 0H27.7432Z" fill="#A073F7" _ngcontent-ng-c94869389=""></path>
<path d="M28.1631 0L53.3211 35.6199L53.0398 35.8183L27.7432 0H28.1631Z" fill="#A073F7" _ngcontent-ng-c94869389=""></path>
<path d="M28.585 0L53.6004 35.4215L53.321 35.6199L28.1631 0H28.585Z" fill="#A073F7" _ngcontent-ng-c94869389=""></path>
<path d="M29.0068 0L53.8816 35.2231L53.6004 35.4215L28.585 0H29.0068Z" fill="#A073F7" _ngcontent-ng-c94869389=""></path>
<path d="M29.4268 0L54.1378 34.9881V35.042L53.8816 35.2231L29.0068 0H29.4268Z" fill="#A073F7" _ngcontent-ng-c94869389=""></path>
<path d="M29.8486 0L54.1378 34.3909V34.9881L29.4268 0H29.8486Z" fill="#A073F7" _ngcontent-ng-c94869389=""></path>
<path d="M30.2705 0L54.1378 33.7957V34.3909L29.8486 0H30.2705Z" fill="#A073F7" _ngcontent-ng-c94869389=""></path>
<path d="M30.6905 0L54.1378 33.1985V33.7957L30.2705 0H30.6905Z" fill="#A073F7" _ngcontent-ng-c94869389=""></path>
<path d="M31.1123 0L54.1378 32.6013V33.1985L30.6904 0H31.1123Z" fill="#A073F7" _ngcontent-ng-c94869389=""></path>
<path d="M31.5342 0L54.1378 32.0061V32.6013L31.1123 0H31.5342Z" fill="#A073F7" _ngcontent-ng-c94869389=""></path>
<path d="M31.9541 0L54.1378 31.4089V32.0061L31.5342 0H31.9541Z" fill="#A073F7" _ngcontent-ng-c94869389=""></path>
<path d="M32.376 0L54.1378 30.8137V31.4089L31.9541 0H32.376Z" fill="#A073F7" _ngcontent-ng-c94869389=""></path>
<path d="M32.7978 0L54.1378 30.2165V30.8137L32.376 0H32.7978Z" fill="#A073F7" _ngcontent-ng-c94869389=""></path>
<path d="M33.2178 0L54.1378 29.6194V30.2165L32.7979 0H33.2178Z" fill="#A073F7" _ngcontent-ng-c94869389=""></path>
<path d="M33.6396 0L54.1378 29.0241V29.6194L33.2178 0H33.6396Z" fill="#A073F7" _ngcontent-ng-c94869389=""></path>
<path d="M34.0615 0L54.1378 28.427V29.0241L33.6396 0H34.0615Z" fill="#A073F7" _ngcontent-ng-c94869389=""></path>
<path d="M34.4815 0L54.1378 27.8298V28.427L34.0615 0H34.4815Z" fill="#A073F7" _ngcontent-ng-c94869389=""></path>
<path d="M34.9033 0L54.1378 27.2346V27.8298L34.4814 0H34.9033Z" fill="#A073F7" _ngcontent-ng-c94869389=""></path>
<path d="M35.3252 0L54.1378 26.6374V27.2346L34.9033 0H35.3252Z" fill="#A073F7" _ngcontent-ng-c94869389=""></path>
<path d="M35.7451 0L54.1378 26.0421V26.6374L35.3252 0H35.7451Z" fill="#A073F7" _ngcontent-ng-c94869389=""></path>
<path d="M36.167 0L54.1378 25.445V26.0421L35.7451 0H36.167Z" fill="#A073F7" _ngcontent-ng-c94869389=""></path>
<path d="M36.5889 0L54.1378 24.8478V25.445L36.167 0H36.5889Z" fill="#A073F7" _ngcontent-ng-c94869389=""></path>
<path d="M37.0088 0L54.1378 24.2526V24.8478L36.5889 0H37.0088Z" fill="#A073F7" _ngcontent-ng-c94869389=""></path>
<path d="M37.4307 0L54.1378 23.6554V24.2526L37.0088 0H37.4307Z" fill="#A073F7" _ngcontent-ng-c94869389=""></path>
<path d="M37.8525 0L54.1378 23.0602V23.6554L37.4307 0H37.8525Z" fill="#A073F7" _ngcontent-ng-c94869389=""></path>
<path d="M38.2725 0L54.1378 22.463V23.0602L37.8525 0H38.2725Z" fill="#A073F7" _ngcontent-ng-c94869389=""></path>
<path d="M38.6943 0L54.1378 21.8659V22.463L38.2725 0H38.6943Z" fill="#A073F7" _ngcontent-ng-c94869389=""></path>
<path d="M39.1162 0L54.1378 21.2706V21.8659L38.6943 0H39.1162Z" fill="#A073F7" _ngcontent-ng-c94869389=""></path>
<path d="M39.5362 0L54.1378 20.6734V21.2706L39.1162 0H39.5362Z" fill="#A073F7" _ngcontent-ng-c94869389=""></path>
<path d="M39.958 0L54.1378 20.0763V20.6734L39.5361 0H39.958Z" fill="#A073F7" _ngcontent-ng-c94869389=""></path>
<path d="M40.3799 0L54.1378 19.481V20.0763L39.958 0H40.3799Z" fill="#A073F7" _ngcontent-ng-c94869389=""></path>
<path d="M40.7998 0L54.1378 18.8839V19.481L40.3799 0H40.7998Z" fill="#A073F7" _ngcontent-ng-c94869389=""></path>
<path d="M41.2217 0L54.1378 18.2886V18.8839L40.7998 0H41.2217Z" fill="#A073F7" _ngcontent-ng-c94869389=""></path>
<path d="M41.6435 0L54.1378 17.6915V18.2886L41.2217 0H41.6435Z" fill="#A073F7" _ngcontent-ng-c94869389=""></path>
<path d="M42.0635 0L54.1378 17.0962V17.6915L41.6436 0H42.0635Z" fill="#A073F7" _ngcontent-ng-c94869389=""></path>
<path d="M42.4853 0L54.1378 16.4991V17.0962L42.0635 0H42.4853Z" fill="#A073F7" _ngcontent-ng-c94869389=""></path>
<path d="M42.9072 0L54.1378 15.9019V16.4991L42.4854 0H42.9072Z" fill="#A073F7" _ngcontent-ng-c94869389=""></path>
<path d="M43.3272 0L54.1378 15.3067V15.9019L42.9072 0H43.3272Z" fill="#A073F7" _ngcontent-ng-c94869389=""></path>
<path d="M43.749 0L54.1378 14.7095V15.3067L43.3271 0H43.749Z" fill="#A073F7" _ngcontent-ng-c94869389=""></path>
<path d="M44.169 0L54.1378 14.1123V14.7095L43.749 0H44.169Z" fill="#A073F7" _ngcontent-ng-c94869389=""></path>
<path d="M54.1377 14.1123L44.1689 0H54.1377V14.1123Z" fill="#A073F7" _ngcontent-ng-c94869389=""></path>
</g>
</svg>