<svg width="156" height="50" viewBox="0 0 156 50" fill="none" xmlns="http://www.w3.org/2000/svg">
<path d="M91.0525 11.8026L86.8589 27.8856H82.1162L79.5581 17.3004L76.9016 27.8856H72.1513L68.0732 11.8026H72.265L74.5766 23.509L77.4391 11.8026H81.7464L84.4991 23.5013L86.8358 11.7949L91.0525 11.8026Z" fill="#333333"/>
<path d="M96.9387 14.9407V18.1943H102.186V21.2187H96.9387V24.7477H102.866V27.8857H93.0225V11.8027H102.866V14.9407H96.9387Z" fill="#333333"/>
<path d="M112.175 21.7001H117.147C116.896 22.5381 116.387 23.2756 115.692 23.8075C114.98 24.3117 114.123 24.5694 113.252 24.5415C111.845 24.5415 110.742 24.1248 109.942 23.2913C109.142 22.4578 108.741 21.302 108.738 19.8239C108.738 18.4331 109.12 17.3216 109.884 16.4894C110.648 15.6572 111.664 15.2411 112.932 15.2411C113.594 15.2251 114.251 15.3705 114.845 15.6649C115.375 15.9375 115.81 16.3647 116.093 16.8901H120.423C120.051 15.3223 119.118 13.9451 117.8 13.0181C116.478 12.0884 114.856 11.6228 112.932 11.6215C111.453 11.5945 109.992 11.9537 108.694 12.6637C107.477 13.3432 106.476 14.3511 105.804 15.5725C105.095 16.8755 104.736 18.3404 104.762 19.8239C104.735 21.3032 105.094 22.764 105.804 24.0618C106.483 25.2791 107.491 26.2805 108.713 26.9513C110.016 27.661 111.481 28.0201 112.965 27.9935C114.214 28.0168 115.452 27.7532 116.584 27.2229C117.603 26.7429 118.505 26.0476 119.229 25.1849C119.903 24.386 120.405 23.4577 120.706 22.4572V18.8126H112.175V21.7001Z" fill="#A073F7"/>
<path d="M122.873 27.8857H132.724V24.7477H126.791V21.2187H132.039V18.1943H126.791V14.9407H132.724V11.8027H122.873V27.8857Z" fill="#A073F7"/>
<path d="M134.396 11.8027V14.9407H138.659V27.8857H142.576V14.9407H146.837V11.8027H134.396Z" fill="#A073F7"/>
<path d="M70.2939 29.9663V33.1062H63.7443V36.4966H68.6468V39.5441H63.7424V46.0493H59.8242V29.9663H70.2939Z" fill="#333333"/>
<path d="M76.2063 29.9663V39.5884C76.2063 40.5515 76.4432 41.2925 76.9171 41.8114C77.391 42.3302 78.0857 42.587 79.0014 42.5819C79.917 42.5819 80.6195 42.325 81.1088 41.8114C81.5981 41.2977 81.8427 40.5567 81.8427 39.5884V29.9663H85.759V39.5672C85.759 41.0017 85.454 42.2159 84.8439 43.2099C84.2577 44.1829 83.4019 44.9651 82.3802 45.4618C81.3045 45.9765 80.1244 46.2356 78.932 46.2188C77.7545 46.2355 76.5894 45.9763 75.5301 45.4618C74.5324 44.9686 73.7061 44.1866 73.1588 43.2176C72.5796 42.2159 72.2894 40.9959 72.2881 39.5575V29.9663H76.2063Z" fill="#333333"/>
<path d="M102.896 46.0493H98.9794L92.4298 36.1306V46.0493H88.5078V29.9663H92.426L98.9755 39.9332V29.9663H102.892L102.896 46.0493Z" fill="#333333"/>
<path d="M116.208 30.9757C117.441 31.615 118.463 32.597 119.151 33.8036C119.836 35.0972 120.193 36.5385 120.193 38.002C120.193 39.4655 119.836 40.9068 119.151 42.2005C118.464 43.4149 117.437 44.4024 116.196 45.0418C114.92 45.7148 113.443 46.0506 111.766 46.0493H105.736V29.9663H111.762C113.457 29.9663 114.939 30.3028 116.208 30.9757ZM114.969 41.4453C115.794 40.6363 116.207 39.4908 116.208 38.0088C116.209 36.5268 115.796 35.371 114.969 34.5414C114.145 33.7169 112.989 33.3047 111.502 33.3047H109.647V42.6512H111.502C112.989 42.6564 114.145 42.2544 114.969 41.4453Z" fill="#333333"/>
<path d="M126.31 33.1062V36.3579H131.557V39.3822H126.31V42.9113H132.245V46.0493H122.392V29.9663H132.245V33.1062H126.31Z" fill="#333333"/>
<path d="M145.258 30.9757C146.491 31.615 147.513 32.597 148.201 33.8036C148.886 35.0972 149.243 36.5385 149.243 38.002C149.243 39.4655 148.886 40.9068 148.201 42.2005C147.514 43.4153 146.487 44.4029 145.246 45.0418C143.971 45.7148 142.494 46.0506 140.816 46.0493H134.788V29.9663H140.816C142.509 29.9663 143.99 30.3028 145.258 30.9757ZM144.021 41.4453C144.845 40.6363 145.258 39.4908 145.258 38.0088C145.258 36.5268 144.845 35.371 144.021 34.5414C143.195 33.7169 142.039 33.3047 140.554 33.3047H138.697V42.6512H140.554C142.041 42.6564 143.197 42.2544 144.021 41.4453Z" fill="#333333"/>
<path d="M151.591 45.6252C151.381 45.4367 151.214 45.2051 151.101 44.9462C150.988 44.6872 150.933 44.407 150.938 44.1246C150.931 43.836 150.985 43.5492 151.098 43.2834C151.211 43.0177 151.379 42.779 151.591 42.5836C152.048 42.1617 152.654 41.9386 153.275 41.9633C153.579 41.9521 153.883 42.0011 154.168 42.1076C154.453 42.214 154.715 42.3758 154.937 42.5836C155.15 42.779 155.318 43.0177 155.43 43.2834C155.543 43.5492 155.598 43.836 155.59 44.1246C155.596 44.407 155.54 44.6872 155.427 44.9462C155.315 45.2051 155.148 45.4367 154.937 45.6252C154.484 46.038 153.887 46.2565 153.275 46.234C152.656 46.259 152.051 46.0405 151.591 45.6252Z" fill="#333333"/>
<path d="M40.7459 19.5292L34.8128 11.6023L19.8297 32.1833L25.0674 39.8887L21.4247 44.4521L6.26445 22.7115H12.9835L19.0707 30.8214L33.838 9.88981L26.8666 0L12.9604 19.4425H0L21.2494 49.9133L27.0284 42.6703L32.2912 50L39.1528 40.2836L54.1301 19.3501L40.7459 19.5292ZM47.7154 22.7057L37.7562 36.61L34.2195 32.112L40.7902 22.7982L47.7154 22.7057ZM28.4385 39.0295L23.8269 32.2469L34.8494 17.1078L37.9142 21.2032L30.1433 32.2218L35.7856 39.384L32.2681 44.3635L28.4385 39.0295ZM15.8268 21.0529L26.8474 5.64224L29.839 9.88018L18.9898 25.2678L15.8268 21.0529Z" fill="#A073F7"/>
</svg> 